<svg width="18" height="18" viewBox="0 0 18 18" fill="none" xmlns="http://www.w3.org/2000/svg">
<rect width="17.9999" height="18" rx="8.99994" fill="#7F22FE"/>
<path d="M3.8761 5.96009C3.8761 5.64031 3.95847 5.39321 4.1232 5.21878C4.29762 5.05405 4.54473 4.97168 4.8645 4.97168H13.1351C13.4549 4.97168 13.6972 5.05405 13.8619 5.21878C14.0363 5.39321 14.1235 5.64031 14.1235 5.96009V8.77997C14.1235 10.4952 13.6826 11.8179 12.8008 12.7481C11.919 13.6881 10.6544 14.1581 9.00708 14.1581C8.18341 14.1581 7.4518 14.037 6.81224 13.7947C6.18238 13.5621 5.64941 13.2133 5.21335 12.7481C4.77729 12.2927 4.44298 11.7307 4.21041 11.062C3.98754 10.4031 3.8761 9.64241 3.8761 8.77997V5.96009ZM5.41685 6.83222V8.66369C5.41685 9.26448 5.48952 9.78292 5.63488 10.219C5.78992 10.6647 6.0128 11.033 6.3035 11.3237C6.6039 11.6241 6.97698 11.8469 7.42273 11.9923C7.87817 12.1377 8.40629 12.2103 9.00708 12.2103C10.2087 12.2103 11.105 11.9148 11.6961 11.3237C12.2872 10.7326 12.5828 9.8459 12.5828 8.66369V6.83222H5.41685Z" fill="white"/>
</svg>
