<svg width="119" height="29" viewBox="0 0 119 29" fill="none" xmlns="http://www.w3.org/2000/svg">
<rect x="0.000488281" y="0.0078125" width="27.792" height="27.792" rx="6" fill="#7F22FE"/>
<path d="M36.7104 21.9043C36.2264 21.9043 35.8524 21.7796 35.5884 21.5303C35.3391 21.2663 35.2144 20.8923 35.2144 20.4083V7.8903C35.2144 7.4063 35.3391 7.03963 35.5884 6.7903C35.8524 6.5263 36.2264 6.3943 36.7104 6.3943H41.9904C43.0757 6.3943 43.9997 6.55563 44.7624 6.8783C45.5251 7.20096 46.1044 7.66296 46.5004 8.2643C46.9111 8.86563 47.1164 9.5843 47.1164 10.4203C47.1164 11.359 46.8451 12.151 46.3024 12.7963C45.7597 13.4416 45.0191 13.8743 44.0804 14.0943V13.7643C45.1657 13.9256 46.0091 14.3363 46.6104 14.9963C47.2117 15.6563 47.5124 16.5143 47.5124 17.5703C47.5124 18.949 47.0431 20.0196 46.1044 20.7823C45.1804 21.5303 43.8897 21.9043 42.2324 21.9043H36.7104ZM37.9204 19.7703H41.8804C42.8777 19.7703 43.6111 19.5796 44.0804 19.1983C44.5497 18.8023 44.7844 18.2156 44.7844 17.4383C44.7844 16.6463 44.5497 16.0596 44.0804 15.6783C43.6111 15.297 42.8777 15.1063 41.8804 15.1063H37.9204V19.7703ZM37.9204 12.9723H41.5064C42.4744 12.9723 43.1931 12.789 43.6624 12.4223C44.1464 12.041 44.3884 11.4836 44.3884 10.7503C44.3884 10.017 44.1464 9.46696 43.6624 9.1003C43.1931 8.71896 42.4744 8.5283 41.5064 8.5283H37.9204V12.9723ZM55.3989 22.1243C54.1815 22.1243 53.1329 21.897 52.2529 21.4423C51.3729 20.9876 50.6909 20.3423 50.2069 19.5063C49.7375 18.6703 49.5029 17.6803 49.5029 16.5363C49.5029 15.4216 49.7302 14.4463 50.1849 13.6103C50.6542 12.7743 51.2922 12.1216 52.0989 11.6523C52.9202 11.1683 53.8515 10.9263 54.8929 10.9263C55.6555 10.9263 56.3375 11.051 56.9389 11.3003C57.5549 11.5496 58.0755 11.909 58.5009 12.3783C58.9409 12.8476 59.2709 13.4196 59.4909 14.0943C59.7255 14.7543 59.8429 15.5023 59.8429 16.3383C59.8429 16.6023 59.7475 16.8076 59.5569 16.9543C59.3809 17.0863 59.1242 17.1523 58.7869 17.1523H51.7249V15.5683H57.9069L57.5549 15.8983C57.5549 15.2236 57.4522 14.659 57.2469 14.2043C57.0562 13.7496 56.7702 13.405 56.3889 13.1703C56.0222 12.921 55.5602 12.7963 55.0029 12.7963C54.3869 12.7963 53.8589 12.943 53.4189 13.2363C52.9935 13.515 52.6635 13.9183 52.4289 14.4463C52.2089 14.9596 52.0989 15.5756 52.0989 16.2943V16.4483C52.0989 17.651 52.3775 18.553 52.9349 19.1543C53.5069 19.741 54.3429 20.0343 55.4429 20.0343C55.8242 20.0343 56.2495 19.9903 56.7189 19.9023C57.2029 19.7996 57.6575 19.631 58.0829 19.3963C58.3909 19.2203 58.6622 19.147 58.8969 19.1763C59.1315 19.191 59.3149 19.2716 59.4469 19.4183C59.5935 19.565 59.6815 19.7483 59.7109 19.9683C59.7402 20.1736 59.6962 20.3863 59.5789 20.6063C59.4762 20.8263 59.2929 21.017 59.0289 21.1783C58.5155 21.501 57.9215 21.743 57.2469 21.9043C56.5869 22.051 55.9709 22.1243 55.3989 22.1243ZM63.3407 22.0143C62.842 22.0143 62.4387 21.8603 62.1307 21.5523C61.8374 21.2443 61.6907 20.8483 61.6907 20.3643C61.6907 19.895 61.8374 19.5136 62.1307 19.2203C62.4387 18.9123 62.842 18.7583 63.3407 18.7583C63.854 18.7583 64.25 18.9123 64.5287 19.2203C64.822 19.5136 64.9687 19.895 64.9687 20.3643C64.9687 20.8483 64.822 21.2443 64.5287 21.5523C64.25 21.8603 63.854 22.0143 63.3407 22.0143ZM69.2377 21.9043C68.7537 21.9043 68.3797 21.7796 68.1157 21.5303C67.8664 21.2663 67.7417 20.8923 67.7417 20.4083V7.8903C67.7417 7.4063 67.8664 7.03963 68.1157 6.7903C68.3797 6.5263 68.7537 6.3943 69.2377 6.3943H73.5057C76.1017 6.3943 78.1037 7.06163 79.5117 8.3963C80.9344 9.73096 81.6457 11.645 81.6457 14.1383C81.6457 15.385 81.4624 16.4923 81.0957 17.4603C80.7437 18.4136 80.2157 19.2203 79.5117 19.8803C78.8224 20.5403 77.9717 21.0463 76.9597 21.3983C75.9624 21.7356 74.8111 21.9043 73.5057 21.9043H69.2377ZM70.5577 19.5723H73.3297C74.2391 19.5723 75.0237 19.4623 75.6837 19.2423C76.3584 19.0076 76.9157 18.6703 77.3557 18.2303C77.8104 17.7756 78.1477 17.211 78.3677 16.5363C78.5877 15.847 78.6977 15.0476 78.6977 14.1383C78.6977 12.3196 78.2504 10.963 77.3557 10.0683C76.4611 9.17363 75.1191 8.7263 73.3297 8.7263H70.5577V19.5723ZM87.7775 22.1243C87.0002 22.1243 86.3035 21.9776 85.6875 21.6843C85.0862 21.3763 84.6095 20.9656 84.2575 20.4523C83.9202 19.939 83.7515 19.3596 83.7515 18.7143C83.7515 17.9223 83.9569 17.299 84.3675 16.8443C84.7782 16.375 85.4455 16.0376 86.3695 15.8323C87.2935 15.627 88.5329 15.5243 90.0875 15.5243H91.1875V17.1083H90.1095C89.2002 17.1083 88.4742 17.1523 87.9315 17.2403C87.3889 17.3283 87.0002 17.4823 86.7655 17.7023C86.5455 17.9076 86.4355 18.201 86.4355 18.5823C86.4355 19.0663 86.6042 19.4623 86.9415 19.7703C87.2789 20.0783 87.7482 20.2323 88.3495 20.2323C88.8335 20.2323 89.2589 20.1223 89.6255 19.9023C90.0069 19.6676 90.3075 19.3523 90.5275 18.9563C90.7475 18.5603 90.8575 18.1056 90.8575 17.5923V15.0623C90.8575 14.329 90.6962 13.801 90.3735 13.4783C90.0509 13.1556 89.5082 12.9943 88.7455 12.9943C88.3202 12.9943 87.8582 13.0456 87.3595 13.1483C86.8755 13.251 86.3622 13.427 85.8195 13.6763C85.5409 13.8083 85.2915 13.845 85.0715 13.7863C84.8662 13.7276 84.7049 13.6103 84.5875 13.4343C84.4702 13.2436 84.4115 13.0383 84.4115 12.8183C84.4115 12.5983 84.4702 12.3856 84.5875 12.1803C84.7049 11.9603 84.9029 11.799 85.1815 11.6963C85.8562 11.4176 86.5015 11.2196 87.1175 11.1023C87.7482 10.985 88.3202 10.9263 88.8335 10.9263C89.8895 10.9263 90.7549 11.0876 91.4295 11.4103C92.1189 11.733 92.6322 12.2243 92.9695 12.8843C93.3069 13.5296 93.4755 14.3656 93.4755 15.3923V20.6723C93.4755 21.127 93.3655 21.479 93.1455 21.7283C92.9255 21.963 92.6102 22.0803 92.1995 22.0803C91.7889 22.0803 91.4662 21.963 91.2315 21.7283C91.0115 21.479 90.9015 21.127 90.9015 20.6723V19.6163H91.0775C90.9749 20.1296 90.7695 20.577 90.4615 20.9583C90.1682 21.325 89.7942 21.611 89.3395 21.8163C88.8849 22.0216 88.3642 22.1243 87.7775 22.1243ZM100.205 22.1243C99.5741 22.1243 98.9068 22.0583 98.2028 21.9263C97.4988 21.7943 96.8681 21.567 96.3108 21.2443C96.0761 21.0976 95.9075 20.929 95.8048 20.7383C95.7168 20.533 95.6801 20.335 95.6948 20.1443C95.7241 19.939 95.7975 19.763 95.9148 19.6163C96.0468 19.4696 96.2081 19.3743 96.3988 19.3303C96.6041 19.2863 96.8241 19.323 97.0588 19.4403C97.6455 19.719 98.1955 19.917 98.7088 20.0343C99.2221 20.137 99.7281 20.1883 100.227 20.1883C100.931 20.1883 101.451 20.071 101.789 19.8363C102.141 19.587 102.317 19.2643 102.317 18.8683C102.317 18.531 102.199 18.2743 101.965 18.0983C101.745 17.9076 101.407 17.7683 100.953 17.6803L98.7528 17.2623C97.8435 17.0863 97.1468 16.7563 96.6628 16.2723C96.1935 15.7736 95.9588 15.1356 95.9588 14.3583C95.9588 13.6543 96.1495 13.0456 96.5308 12.5323C96.9268 12.019 97.4695 11.623 98.1588 11.3443C98.8481 11.0656 99.6401 10.9263 100.535 10.9263C101.18 10.9263 101.781 10.9996 102.339 11.1463C102.911 11.2783 103.461 11.491 103.989 11.7843C104.209 11.9016 104.355 12.0556 104.429 12.2463C104.517 12.437 104.539 12.635 104.495 12.8403C104.451 13.031 104.363 13.207 104.231 13.3683C104.099 13.515 103.93 13.6103 103.725 13.6543C103.534 13.6836 103.314 13.6396 103.065 13.5223C102.61 13.2876 102.17 13.119 101.745 13.0163C101.334 12.9136 100.938 12.8623 100.557 12.8623C99.8381 12.8623 99.3028 12.987 98.9508 13.2363C98.6135 13.4856 98.4448 13.8156 98.4448 14.2263C98.4448 14.5343 98.5475 14.791 98.7528 14.9963C98.9581 15.2016 99.2735 15.341 99.6988 15.4143L101.899 15.8323C102.852 16.0083 103.571 16.331 104.055 16.8003C104.553 17.2696 104.803 17.9003 104.803 18.6923C104.803 19.763 104.385 20.6063 103.549 21.2223C102.713 21.8236 101.598 22.1243 100.205 22.1243ZM108.373 22.0803C107.933 22.0803 107.596 21.963 107.361 21.7283C107.126 21.479 107.009 21.127 107.009 20.6723V7.6043C107.009 7.14963 107.126 6.80496 107.361 6.5703C107.596 6.33563 107.933 6.2183 108.373 6.2183C108.813 6.2183 109.15 6.33563 109.385 6.5703C109.634 6.80496 109.759 7.14963 109.759 7.6043V13.3023H109.451C109.774 12.525 110.272 11.9383 110.947 11.5423C111.636 11.1316 112.414 10.9263 113.279 10.9263C114.144 10.9263 114.856 11.0876 115.413 11.4103C115.97 11.733 116.388 12.2243 116.667 12.8843C116.946 13.5296 117.085 14.351 117.085 15.3483V20.6723C117.085 21.127 116.968 21.479 116.733 21.7283C116.498 21.963 116.161 22.0803 115.721 22.0803C115.281 22.0803 114.936 21.963 114.687 21.7283C114.452 21.479 114.335 21.127 114.335 20.6723V15.4803C114.335 14.6443 114.174 14.0356 113.851 13.6543C113.543 13.273 113.059 13.0823 112.399 13.0823C111.592 13.0823 110.947 13.339 110.463 13.8523C109.994 14.351 109.759 15.0183 109.759 15.8543V20.6723C109.759 21.611 109.297 22.0803 108.373 22.0803Z" fill="#0E0A2F"/>
<path d="M4.0615 12.636C3.80369 12.3964 3.66621 12.1448 3.64906 11.8812C3.64697 11.6172 3.76577 11.3562 4.00544 11.0984L10.2041 4.43062C10.4438 4.17281 10.6917 4.03924 10.948 4.02989C11.2194 4.02 11.4839 4.13489 11.7417 4.37455L14.5542 6.9891C15.1323 7.52654 15.5446 8.07002 15.791 8.61955C16.0375 9.16908 16.1173 9.70204 16.0305 10.2184C15.9514 10.7421 15.7049 11.2266 15.291 11.6719C14.8262 12.1719 14.2894 12.4594 13.6808 12.5344C13.0722 12.6094 12.4635 12.4731 11.8545 12.1255L12.0179 11.9497C12.5162 12.5731 12.762 13.2094 12.7555 13.8587C12.749 14.5081 12.4843 15.114 11.9614 15.6765C11.2787 16.4108 10.4985 16.7487 9.62086 16.6901C8.75829 16.631 7.88561 16.1911 7.00282 15.3704L4.0615 12.636ZM5.76273 12.0985L7.87204 14.0594C8.40328 14.5533 8.88831 14.8149 9.32713 14.8442C9.77321 14.8656 10.1887 14.6693 10.5736 14.2553C10.9658 13.8334 11.1313 13.4047 11.0702 12.9692C11.009 12.5337 10.7128 12.069 10.1816 11.5751L8.07225 9.61422L5.76273 12.0985ZM9.12896 8.47753L11.0391 10.2532C11.5547 10.7326 12.0283 10.9908 12.4598 11.0279C12.9065 11.0644 13.3113 10.8874 13.6745 10.4968C14.0376 10.1062 14.181 9.69339 14.1048 9.25841C14.0436 8.82289 13.7553 8.36546 13.2396 7.88612L11.3295 6.11041L9.12896 8.47753ZM12.1294 20.1363C11.8716 19.8966 11.7341 19.645 11.7169 19.3815C11.7148 19.1174 11.8336 18.8564 12.0733 18.5986L18.272 11.9309C18.5116 11.6731 18.7596 11.5395 19.0159 11.5301C19.2872 11.5202 19.5518 11.6351 19.8096 11.8748L22.083 13.9882C23.4658 15.2737 24.2017 16.6205 24.2908 18.0287C24.3877 19.444 23.8188 20.8158 22.5841 22.1439C21.9668 22.8079 21.3208 23.307 20.6462 23.641C19.9866 23.9745 19.3059 24.1427 18.6041 24.1457C17.9101 24.1559 17.2064 24.0042 16.4931 23.6905C15.7948 23.3764 15.098 22.8961 14.4027 22.2497L12.1294 20.1363ZM13.9872 19.5478L15.4637 20.9204C15.9481 21.3707 16.4205 21.7007 16.881 21.9103C17.3566 22.1194 17.8205 22.2157 18.2728 22.1992C18.7401 22.1821 19.1994 22.0484 19.6506 21.798C20.1092 21.5397 20.5636 21.1684 21.0139 20.6841C21.9144 19.7154 22.3479 18.7712 22.3144 17.8516C22.2809 16.9321 21.7876 16.0293 20.8345 15.1432L19.358 13.7706L13.9872 19.5478Z" fill="white"/>
</svg>
