<svg width="119" height="29" viewBox="0 0 119 29" fill="none" xmlns="http://www.w3.org/2000/svg">
<rect width="27.792" height="27.792" rx="6" fill="#7F22FE"/>
<path d="M36.7099 21.8965C36.2259 21.8965 35.8519 21.7718 35.5879 21.5225C35.3386 21.2585 35.2139 20.8845 35.2139 20.4005V7.88248C35.2139 7.39848 35.3386 7.03182 35.5879 6.78248C35.8519 6.51848 36.2259 6.38648 36.7099 6.38648H41.9899C43.0752 6.38648 43.9992 6.54782 44.7619 6.87048C45.5246 7.19315 46.1039 7.65515 46.4999 8.25648C46.9106 8.85782 47.1159 9.57648 47.1159 10.4125C47.1159 11.3512 46.8446 12.1432 46.3019 12.7885C45.7592 13.4338 45.0186 13.8665 44.0799 14.0865V13.7565C45.1652 13.9178 46.0086 14.3285 46.6099 14.9885C47.2112 15.6485 47.5119 16.5065 47.5119 17.5625C47.5119 18.9412 47.0426 20.0118 46.1039 20.7745C45.1799 21.5225 43.8892 21.8965 42.2319 21.8965H36.7099ZM37.9199 19.7625H41.8799C42.8772 19.7625 43.6106 19.5718 44.0799 19.1905C44.5492 18.7945 44.7839 18.2078 44.7839 17.4305C44.7839 16.6385 44.5492 16.0518 44.0799 15.6705C43.6106 15.2892 42.8772 15.0985 41.8799 15.0985H37.9199V19.7625ZM37.9199 12.9645H41.5059C42.4739 12.9645 43.1926 12.7812 43.6619 12.4145C44.1459 12.0332 44.3879 11.4758 44.3879 10.7425C44.3879 10.0092 44.1459 9.45915 43.6619 9.09248C43.1926 8.71115 42.4739 8.52048 41.5059 8.52048H37.9199V12.9645ZM55.3984 22.1165C54.181 22.1165 53.1324 21.8892 52.2524 21.4345C51.3724 20.9798 50.6904 20.3345 50.2064 19.4985C49.737 18.6625 49.5024 17.6725 49.5024 16.5285C49.5024 15.4138 49.7297 14.4385 50.1844 13.6025C50.6537 12.7665 51.2917 12.1138 52.0984 11.6445C52.9197 11.1605 53.851 10.9185 54.8924 10.9185C55.655 10.9185 56.337 11.0432 56.9384 11.2925C57.5544 11.5418 58.075 11.9012 58.5004 12.3705C58.9404 12.8398 59.2704 13.4118 59.4904 14.0865C59.725 14.7465 59.8424 15.4945 59.8424 16.3305C59.8424 16.5945 59.747 16.7998 59.5564 16.9465C59.3804 17.0785 59.1237 17.1445 58.7864 17.1445H51.7244V15.5605H57.9064L57.5544 15.8905C57.5544 15.2158 57.4517 14.6512 57.2464 14.1965C57.0557 13.7418 56.7697 13.3972 56.3884 13.1625C56.0217 12.9132 55.5597 12.7885 55.0024 12.7885C54.3864 12.7885 53.8584 12.9352 53.4184 13.2285C52.993 13.5072 52.663 13.9105 52.4284 14.4385C52.2084 14.9518 52.0984 15.5678 52.0984 16.2865V16.4405C52.0984 17.6432 52.377 18.5452 52.9344 19.1465C53.5064 19.7332 54.3424 20.0265 55.4424 20.0265C55.8237 20.0265 56.249 19.9825 56.7184 19.8945C57.2024 19.7918 57.657 19.6232 58.0824 19.3885C58.3904 19.2125 58.6617 19.1392 58.8964 19.1685C59.131 19.1832 59.3144 19.2638 59.4464 19.4105C59.593 19.5572 59.681 19.7405 59.7104 19.9605C59.7397 20.1658 59.6957 20.3785 59.5784 20.5985C59.4757 20.8185 59.2924 21.0092 59.0284 21.1705C58.515 21.4932 57.921 21.7352 57.2464 21.8965C56.5864 22.0432 55.9704 22.1165 55.3984 22.1165ZM63.3402 22.0065C62.8415 22.0065 62.4382 21.8525 62.1302 21.5445C61.8369 21.2365 61.6902 20.8405 61.6902 20.3565C61.6902 19.8872 61.8369 19.5058 62.1302 19.2125C62.4382 18.9045 62.8415 18.7505 63.3402 18.7505C63.8535 18.7505 64.2495 18.9045 64.5282 19.2125C64.8215 19.5058 64.9682 19.8872 64.9682 20.3565C64.9682 20.8405 64.8215 21.2365 64.5282 21.5445C64.2495 21.8525 63.8535 22.0065 63.3402 22.0065ZM69.2372 21.8965C68.7532 21.8965 68.3792 21.7718 68.1152 21.5225C67.8659 21.2585 67.7412 20.8845 67.7412 20.4005V7.88248C67.7412 7.39848 67.8659 7.03182 68.1152 6.78248C68.3792 6.51848 68.7532 6.38648 69.2372 6.38648H73.5052C76.1012 6.38648 78.1032 7.05382 79.5112 8.38848C80.9339 9.72315 81.6452 11.6372 81.6452 14.1305C81.6452 15.3772 81.4619 16.4845 81.0952 17.4525C80.7432 18.4058 80.2152 19.2125 79.5112 19.8725C78.8219 20.5325 77.9712 21.0385 76.9592 21.3905C75.9619 21.7278 74.8106 21.8965 73.5052 21.8965H69.2372ZM70.5572 19.5645H73.3292C74.2386 19.5645 75.0232 19.4545 75.6832 19.2345C76.3579 18.9998 76.9152 18.6625 77.3552 18.2225C77.8099 17.7678 78.1472 17.2032 78.3672 16.5285C78.5872 15.8392 78.6972 15.0398 78.6972 14.1305C78.6972 12.3118 78.2499 10.9552 77.3552 10.0605C76.4606 9.16582 75.1186 8.71848 73.3292 8.71848H70.5572V19.5645ZM87.7771 22.1165C86.9997 22.1165 86.3031 21.9698 85.6871 21.6765C85.0857 21.3685 84.6091 20.9578 84.2571 20.4445C83.9197 19.9312 83.7511 19.3518 83.7511 18.7065C83.7511 17.9145 83.9564 17.2912 84.3671 16.8365C84.7777 16.3672 85.4451 16.0298 86.3691 15.8245C87.2931 15.6192 88.5324 15.5165 90.0871 15.5165H91.1871V17.1005H90.1091C89.1997 17.1005 88.4737 17.1445 87.9311 17.2325C87.3884 17.3205 86.9997 17.4745 86.7651 17.6945C86.5451 17.8998 86.4351 18.1932 86.4351 18.5745C86.4351 19.0585 86.6037 19.4545 86.9411 19.7625C87.2784 20.0705 87.7477 20.2245 88.3491 20.2245C88.8331 20.2245 89.2584 20.1145 89.6251 19.8945C90.0064 19.6598 90.3071 19.3445 90.5271 18.9485C90.7471 18.5525 90.8571 18.0978 90.8571 17.5845V15.0545C90.8571 14.3212 90.6957 13.7932 90.3731 13.4705C90.0504 13.1478 89.5077 12.9865 88.7451 12.9865C88.3197 12.9865 87.8577 13.0378 87.3591 13.1405C86.8751 13.2432 86.3617 13.4192 85.8191 13.6685C85.5404 13.8005 85.2911 13.8372 85.0711 13.7785C84.8657 13.7198 84.7044 13.6025 84.5871 13.4265C84.4697 13.2358 84.4111 13.0305 84.4111 12.8105C84.4111 12.5905 84.4697 12.3778 84.5871 12.1725C84.7044 11.9525 84.9024 11.7912 85.1811 11.6885C85.8557 11.4098 86.5011 11.2118 87.1171 11.0945C87.7477 10.9772 88.3197 10.9185 88.8331 10.9185C89.8891 10.9185 90.7544 11.0798 91.4291 11.4025C92.1184 11.7252 92.6317 12.2165 92.9691 12.8765C93.3064 13.5218 93.4751 14.3578 93.4751 15.3845V20.6645C93.4751 21.1192 93.3651 21.4712 93.1451 21.7205C92.9251 21.9552 92.6097 22.0725 92.1991 22.0725C91.7884 22.0725 91.4657 21.9552 91.2311 21.7205C91.0111 21.4712 90.9011 21.1192 90.9011 20.6645V19.6085H91.0771C90.9744 20.1218 90.7691 20.5692 90.4611 20.9505C90.1677 21.3172 89.7937 21.6032 89.3391 21.8085C88.8844 22.0138 88.3637 22.1165 87.7771 22.1165ZM100.204 22.1165C99.5736 22.1165 98.9063 22.0505 98.2023 21.9185C97.4983 21.7865 96.8676 21.5592 96.3103 21.2365C96.0756 21.0898 95.907 20.9212 95.8043 20.7305C95.7163 20.5252 95.6796 20.3272 95.6943 20.1365C95.7236 19.9312 95.797 19.7552 95.9143 19.6085C96.0463 19.4618 96.2076 19.3665 96.3983 19.3225C96.6036 19.2785 96.8236 19.3152 97.0583 19.4325C97.645 19.7112 98.195 19.9092 98.7083 20.0265C99.2216 20.1292 99.7276 20.1805 100.226 20.1805C100.93 20.1805 101.451 20.0632 101.788 19.8285C102.14 19.5792 102.316 19.2565 102.316 18.8605C102.316 18.5232 102.199 18.2665 101.964 18.0905C101.744 17.8998 101.407 17.7605 100.952 17.6725L98.7523 17.2545C97.843 17.0785 97.1463 16.7485 96.6623 16.2645C96.193 15.7658 95.9583 15.1278 95.9583 14.3505C95.9583 13.6465 96.149 13.0378 96.5303 12.5245C96.9263 12.0112 97.469 11.6152 98.1583 11.3365C98.8476 11.0578 99.6396 10.9185 100.534 10.9185C101.18 10.9185 101.781 10.9918 102.338 11.1385C102.91 11.2705 103.46 11.4832 103.988 11.7765C104.208 11.8938 104.355 12.0478 104.428 12.2385C104.516 12.4292 104.538 12.6272 104.494 12.8325C104.45 13.0232 104.362 13.1992 104.23 13.3605C104.098 13.5072 103.93 13.6025 103.724 13.6465C103.534 13.6758 103.314 13.6318 103.064 13.5145C102.61 13.2798 102.17 13.1112 101.744 13.0085C101.334 12.9058 100.938 12.8545 100.556 12.8545C99.8376 12.8545 99.3023 12.9792 98.9503 13.2285C98.613 13.4778 98.4443 13.8078 98.4443 14.2185C98.4443 14.5265 98.547 14.7832 98.7523 14.9885C98.9576 15.1938 99.273 15.3332 99.6983 15.4065L101.898 15.8245C102.852 16.0005 103.57 16.3232 104.054 16.7925C104.553 17.2618 104.802 17.8925 104.802 18.6845C104.802 19.7552 104.384 20.5985 103.548 21.2145C102.712 21.8158 101.598 22.1165 100.204 22.1165ZM108.372 22.0725C107.932 22.0725 107.595 21.9552 107.36 21.7205C107.126 21.4712 107.008 21.1192 107.008 20.6645V7.59648C107.008 7.14182 107.126 6.79715 107.36 6.56248C107.595 6.32782 107.932 6.21048 108.372 6.21048C108.812 6.21048 109.15 6.32782 109.384 6.56248C109.634 6.79715 109.758 7.14182 109.758 7.59648V13.2945H109.45C109.773 12.5172 110.272 11.9305 110.946 11.5345C111.636 11.1238 112.413 10.9185 113.278 10.9185C114.144 10.9185 114.855 11.0798 115.412 11.4025C115.97 11.7252 116.388 12.2165 116.666 12.8765C116.945 13.5218 117.084 14.3432 117.084 15.3405V20.6645C117.084 21.1192 116.967 21.4712 116.732 21.7205C116.498 21.9552 116.16 22.0725 115.72 22.0725C115.28 22.0725 114.936 21.9552 114.686 21.7205C114.452 21.4712 114.334 21.1192 114.334 20.6645V15.4725C114.334 14.6365 114.173 14.0278 113.85 13.6465C113.542 13.2652 113.058 13.0745 112.398 13.0745C111.592 13.0745 110.946 13.3312 110.462 13.8445C109.993 14.3432 109.758 15.0105 109.758 15.8465V20.6645C109.758 21.6032 109.296 22.0725 108.372 22.0725Z" fill="#F8F8F8"/>
<path d="M4.06101 12.6282C3.8032 12.3886 3.66572 12.137 3.64857 11.8734C3.64649 11.6093 3.76528 11.3484 4.00495 11.0906L10.2036 4.4228C10.4433 4.165 10.6913 4.03142 10.9475 4.02208C11.2189 4.01219 11.4835 4.12707 11.7413 4.36674L14.5537 6.98129C15.1318 7.51873 15.5441 8.06221 15.7905 8.61174C16.037 9.16127 16.1168 9.69423 16.03 10.2106C15.9509 10.7343 15.7044 11.2188 15.2905 11.6641C14.8257 12.164 14.289 12.4515 13.6803 12.5266C13.0717 12.6016 12.463 12.4653 11.854 12.1177L12.0175 11.9419C12.5157 12.5653 12.7615 13.2016 12.755 13.8509C12.7485 14.5003 12.4838 15.1062 11.9609 15.6686C11.2782 16.403 10.498 16.7409 9.62037 16.6823C8.7578 16.6232 7.88512 16.1833 7.00234 15.3626L4.06101 12.6282ZM5.76224 12.0907L7.87156 14.0516C8.40279 14.5455 8.88782 14.8071 9.32664 14.8363C9.77273 14.8578 10.1882 14.6615 10.5731 14.2475C10.9653 13.8256 11.1308 13.3969 11.0697 12.9614C11.0085 12.5259 10.7123 12.0612 10.1811 11.5673L8.07176 9.6064L5.76224 12.0907ZM9.12847 8.46972L11.0386 10.2454C11.5542 10.7248 12.0278 10.983 12.4593 11.0201C12.906 11.0566 13.3108 10.8796 13.674 10.489C14.0371 10.0984 14.1806 9.68557 14.1043 9.2506C14.0432 8.81508 13.7548 8.35765 13.2392 7.87831L11.3291 6.1026L9.12847 8.46972ZM12.1289 20.1285C11.8711 19.8888 11.7336 19.6372 11.7164 19.3737C11.7143 19.1096 11.8331 18.8486 12.0728 18.5908L18.2715 11.923C18.5111 11.6652 18.7591 11.5317 19.0154 11.5223C19.2867 11.5124 19.5513 11.6273 19.8091 11.867L22.0825 13.9804C23.4653 15.2659 24.2012 16.6127 24.2903 18.0208C24.3872 19.4362 23.8183 20.808 22.5836 22.1361C21.9663 22.8001 21.3203 23.2992 20.6457 23.6332C19.9861 23.9667 19.3054 24.1349 18.6036 24.1379C17.9096 24.1481 17.206 23.9964 16.4926 23.6827C15.7943 23.3686 15.0975 22.8883 14.4022 22.2419L12.1289 20.1285ZM13.9867 19.54L15.4633 20.9126C15.9476 21.3629 16.42 21.6928 16.8805 21.9025C17.3561 22.1116 17.82 22.2079 18.2723 22.1914C18.7396 22.1743 19.1989 22.0406 19.6501 21.7902C20.1087 21.5319 20.5631 21.1606 21.0134 20.6763C21.9139 19.7075 22.3475 18.7634 22.3139 17.8438C22.2804 16.9243 21.7871 16.0215 20.834 15.1354L19.3575 13.7628L13.9867 19.54Z" fill="white"/>
</svg>
