<svg width="116" height="28" viewBox="0 0 116 28" fill="none" xmlns="http://www.w3.org/2000/svg">
<path d="M34.19 22C33.706 22 33.332 21.8753 33.068 21.626C32.8187 21.362 32.694 20.988 32.694 20.504V7.986C32.694 7.502 32.8187 7.13533 33.068 6.886C33.332 6.622 33.706 6.49 34.19 6.49H39.47C40.5553 6.49 41.4793 6.65133 42.242 6.974C43.0047 7.29667 43.584 7.75867 43.98 8.36C44.3907 8.96133 44.596 9.68 44.596 10.516C44.596 11.4547 44.3247 12.2467 43.782 12.892C43.2393 13.5373 42.4987 13.97 41.56 14.19V13.86C42.6453 14.0213 43.4887 14.432 44.09 15.092C44.6913 15.752 44.992 16.61 44.992 17.666C44.992 19.0447 44.5227 20.1153 43.584 20.878C42.66 21.626 41.3693 22 39.712 22H34.19ZM35.4 19.866H39.36C40.3573 19.866 41.0907 19.6753 41.56 19.294C42.0293 18.898 42.264 18.3113 42.264 17.534C42.264 16.742 42.0293 16.1553 41.56 15.774C41.0907 15.3927 40.3573 15.202 39.36 15.202H35.4V19.866ZM35.4 13.068H38.986C39.954 13.068 40.6727 12.8847 41.142 12.518C41.626 12.1367 41.868 11.5793 41.868 10.846C41.868 10.1127 41.626 9.56267 41.142 9.196C40.6727 8.81467 39.954 8.624 38.986 8.624H35.4V13.068ZM52.8785 22.22C51.6612 22.22 50.6125 21.9927 49.7325 21.538C48.8525 21.0833 48.1705 20.438 47.6865 19.602C47.2172 18.766 46.9825 17.776 46.9825 16.632C46.9825 15.5173 47.2098 14.542 47.6645 13.706C48.1338 12.87 48.7718 12.2173 49.5785 11.748C50.3998 11.264 51.3312 11.022 52.3725 11.022C53.1352 11.022 53.8172 11.1467 54.4185 11.396C55.0345 11.6453 55.5552 12.0047 55.9805 12.474C56.4205 12.9433 56.7505 13.5153 56.9705 14.19C57.2052 14.85 57.3225 15.598 57.3225 16.434C57.3225 16.698 57.2272 16.9033 57.0365 17.05C56.8605 17.182 56.6038 17.248 56.2665 17.248H49.2045V15.664H55.3865L55.0345 15.994C55.0345 15.3193 54.9318 14.7547 54.7265 14.3C54.5358 13.8453 54.2498 13.5007 53.8685 13.266C53.5018 13.0167 53.0398 12.892 52.4825 12.892C51.8665 12.892 51.3385 13.0387 50.8985 13.332C50.4732 13.6107 50.1432 14.014 49.9085 14.542C49.6885 15.0553 49.5785 15.6713 49.5785 16.39V16.544C49.5785 17.7467 49.8572 18.6487 50.4145 19.25C50.9865 19.8367 51.8225 20.13 52.9225 20.13C53.3038 20.13 53.7292 20.086 54.1985 19.998C54.6825 19.8953 55.1372 19.7267 55.5625 19.492C55.8705 19.316 56.1418 19.2427 56.3765 19.272C56.6112 19.2867 56.7945 19.3673 56.9265 19.514C57.0732 19.6607 57.1612 19.844 57.1905 20.064C57.2198 20.2693 57.1758 20.482 57.0585 20.702C56.9558 20.922 56.7725 21.1127 56.5085 21.274C55.9952 21.5967 55.4012 21.8387 54.7265 22C54.0665 22.1467 53.4505 22.22 52.8785 22.22ZM60.8203 22.11C60.3216 22.11 59.9183 21.956 59.6103 21.648C59.317 21.34 59.1703 20.944 59.1703 20.46C59.1703 19.9907 59.317 19.6093 59.6103 19.316C59.9183 19.008 60.3216 18.854 60.8203 18.854C61.3336 18.854 61.7296 19.008 62.0083 19.316C62.3016 19.6093 62.4483 19.9907 62.4483 20.46C62.4483 20.944 62.3016 21.34 62.0083 21.648C61.7296 21.956 61.3336 22.11 60.8203 22.11ZM66.7173 22C66.2333 22 65.8593 21.8753 65.5953 21.626C65.346 21.362 65.2213 20.988 65.2213 20.504V7.986C65.2213 7.502 65.346 7.13533 65.5953 6.886C65.8593 6.622 66.2333 6.49 66.7173 6.49H70.9853C73.5813 6.49 75.5833 7.15733 76.9913 8.492C78.414 9.82667 79.1253 11.7407 79.1253 14.234C79.1253 15.4807 78.942 16.588 78.5753 17.556C78.2233 18.5093 77.6953 19.316 76.9913 19.976C76.302 20.636 75.4513 21.142 74.4393 21.494C73.442 21.8313 72.2907 22 70.9853 22H66.7173ZM68.0373 19.668H70.8093C71.7187 19.668 72.5033 19.558 73.1633 19.338C73.838 19.1033 74.3953 18.766 74.8353 18.326C75.29 17.8713 75.6273 17.3067 75.8473 16.632C76.0673 15.9427 76.1773 15.1433 76.1773 14.234C76.1773 12.4153 75.73 11.0587 74.8353 10.164C73.9407 9.26933 72.5987 8.822 70.8093 8.822H68.0373V19.668ZM85.2572 22.22C84.4798 22.22 83.7832 22.0733 83.1672 21.78C82.5658 21.472 82.0892 21.0613 81.7372 20.548C81.3998 20.0347 81.2312 19.4553 81.2312 18.81C81.2312 18.018 81.4365 17.3947 81.8472 16.94C82.2578 16.4707 82.9252 16.1333 83.8492 15.928C84.7732 15.7227 86.0125 15.62 87.5672 15.62H88.6672V17.204H87.5892C86.6798 17.204 85.9538 17.248 85.4112 17.336C84.8685 17.424 84.4798 17.578 84.2452 17.798C84.0252 18.0033 83.9152 18.2967 83.9152 18.678C83.9152 19.162 84.0838 19.558 84.4212 19.866C84.7585 20.174 85.2278 20.328 85.8292 20.328C86.3132 20.328 86.7385 20.218 87.1052 19.998C87.4865 19.7633 87.7872 19.448 88.0072 19.052C88.2272 18.656 88.3372 18.2013 88.3372 17.688V15.158C88.3372 14.4247 88.1758 13.8967 87.8532 13.574C87.5305 13.2513 86.9878 13.09 86.2252 13.09C85.7998 13.09 85.3378 13.1413 84.8392 13.244C84.3552 13.3467 83.8418 13.5227 83.2992 13.772C83.0205 13.904 82.7712 13.9407 82.5512 13.882C82.3458 13.8233 82.1845 13.706 82.0672 13.53C81.9498 13.3393 81.8912 13.134 81.8912 12.914C81.8912 12.694 81.9498 12.4813 82.0672 12.276C82.1845 12.056 82.3825 11.8947 82.6612 11.792C83.3358 11.5133 83.9812 11.3153 84.5972 11.198C85.2278 11.0807 85.7998 11.022 86.3132 11.022C87.3692 11.022 88.2345 11.1833 88.9092 11.506C89.5985 11.8287 90.1118 12.32 90.4492 12.98C90.7865 13.6253 90.9552 14.4613 90.9552 15.488V20.768C90.9552 21.2227 90.8452 21.5747 90.6252 21.824C90.4052 22.0587 90.0898 22.176 89.6792 22.176C89.2685 22.176 88.9458 22.0587 88.7112 21.824C88.4912 21.5747 88.3812 21.2227 88.3812 20.768V19.712H88.5572C88.4545 20.2253 88.2492 20.6727 87.9412 21.054C87.6478 21.4207 87.2738 21.7067 86.8192 21.912C86.3645 22.1173 85.8438 22.22 85.2572 22.22ZM97.6844 22.22C97.0537 22.22 96.3864 22.154 95.6824 22.022C94.9784 21.89 94.3477 21.6627 93.7904 21.34C93.5557 21.1933 93.3871 21.0247 93.2844 20.834C93.1964 20.6287 93.1597 20.4307 93.1744 20.24C93.2037 20.0347 93.2771 19.8587 93.3944 19.712C93.5264 19.5653 93.6877 19.47 93.8784 19.426C94.0837 19.382 94.3037 19.4187 94.5384 19.536C95.1251 19.8147 95.6751 20.0127 96.1884 20.13C96.7017 20.2327 97.2077 20.284 97.7064 20.284C98.4104 20.284 98.9311 20.1667 99.2684 19.932C99.6204 19.6827 99.7964 19.36 99.7964 18.964C99.7964 18.6267 99.6791 18.37 99.4444 18.194C99.2244 18.0033 98.8871 17.864 98.4324 17.776L96.2324 17.358C95.3231 17.182 94.6264 16.852 94.1424 16.368C93.6731 15.8693 93.4384 15.2313 93.4384 14.454C93.4384 13.75 93.6291 13.1413 94.0104 12.628C94.4064 12.1147 94.9491 11.7187 95.6384 11.44C96.3277 11.1613 97.1197 11.022 98.0144 11.022C98.6597 11.022 99.2611 11.0953 99.8184 11.242C100.39 11.374 100.94 11.5867 101.468 11.88C101.688 11.9973 101.835 12.1513 101.908 12.342C101.996 12.5327 102.018 12.7307 101.974 12.936C101.93 13.1267 101.842 13.3027 101.71 13.464C101.578 13.6107 101.41 13.706 101.204 13.75C101.014 13.7793 100.794 13.7353 100.544 13.618C100.09 13.3833 99.6497 13.2147 99.2244 13.112C98.8137 13.0093 98.4177 12.958 98.0364 12.958C97.3177 12.958 96.7824 13.0827 96.4304 13.332C96.0931 13.5813 95.9244 13.9113 95.9244 14.322C95.9244 14.63 96.0271 14.8867 96.2324 15.092C96.4377 15.2973 96.7531 15.4367 97.1784 15.51L99.3784 15.928C100.332 16.104 101.05 16.4267 101.534 16.896C102.033 17.3653 102.282 17.996 102.282 18.788C102.282 19.8587 101.864 20.702 101.028 21.318C100.192 21.9193 99.0777 22.22 97.6844 22.22ZM105.853 22.176C105.413 22.176 105.075 22.0587 104.841 21.824C104.606 21.5747 104.489 21.2227 104.489 20.768V7.7C104.489 7.24533 104.606 6.90067 104.841 6.666C105.075 6.43133 105.413 6.314 105.853 6.314C106.293 6.314 106.63 6.43133 106.865 6.666C107.114 6.90067 107.239 7.24533 107.239 7.7V13.398H106.931C107.253 12.6207 107.752 12.034 108.427 11.638C109.116 11.2273 109.893 11.022 110.759 11.022C111.624 11.022 112.335 11.1833 112.893 11.506C113.45 11.8287 113.868 12.32 114.147 12.98C114.425 13.6253 114.565 14.4467 114.565 15.444V20.768C114.565 21.2227 114.447 21.5747 114.213 21.824C113.978 22.0587 113.641 22.176 113.201 22.176C112.761 22.176 112.416 22.0587 112.167 21.824C111.932 21.5747 111.815 21.2227 111.815 20.768V15.576C111.815 14.74 111.653 14.1313 111.331 13.75C111.023 13.3687 110.539 13.178 109.879 13.178C109.072 13.178 108.427 13.4347 107.943 13.948C107.473 14.4467 107.239 15.114 107.239 15.95V20.768C107.239 21.7067 106.777 22.176 105.853 22.176Z" fill="#F8F8F8"/>
<path d="M0 14C0 6.26801 6.26801 0 14 0C21.732 0 28 6.26801 28 14C28 21.732 21.732 28 14 28C6.26801 28 0 21.732 0 14Z" fill="#7F22FE"/>
<path d="M6.02952 9.27083C6.02952 8.7734 6.15765 8.38902 6.4139 8.11769C6.68523 7.86143 7.06962 7.7333 7.56705 7.7333H20.4325C20.93 7.7333 21.3068 7.86143 21.5631 8.11769C21.8344 8.38902 21.9701 8.7734 21.9701 9.27083V13.6573C21.9701 16.3254 21.2842 18.3829 19.9125 19.83C18.5408 21.2922 16.5737 22.0233 14.0111 22.0233C12.7298 22.0233 11.5918 21.8349 10.5969 21.458C9.61709 21.0962 8.78803 20.5536 8.10971 19.83C7.43139 19.1216 6.91134 18.2473 6.54957 17.2072C6.20287 16.1822 6.02952 14.9989 6.02952 13.6573V9.27083ZM8.42626 10.6275V13.4764C8.42626 14.411 8.53931 15.2174 8.76542 15.8958C9.0066 16.5892 9.3533 17.162 9.80551 17.6142C10.2728 18.0815 10.8531 18.4282 11.5465 18.6543C12.255 18.8804 13.0765 18.9934 14.0111 18.9934C15.8803 18.9934 17.2746 18.5337 18.1941 17.6142C19.1136 16.6947 19.5733 15.3154 19.5733 13.4764V10.6275H8.42626Z" fill="white"/>
</svg>
